# xmcd CD database file
#
# Track frame offsets:
#	150
#	17087
#	35977
#	51415
#	71585
#	90535
#	107867
#	124407
#	138992
#	155712
#	177735
#	196160
#	212822
#	224855
#	243087
#	264885
#	276740
#	294065
#	320282
#	337165
#
# Disc length: 4707 seconds
#
# Revision: 3
# Processed by: cddbd v1.5.2PL0 Copyright (c) Steve Scherf et al.
# Submitted via: jetAudio 7
#
DISCID=48126114
DTITLE=Western Union - 20 Country Top Volltreffer
DYEAR=1900
DGENRE=Country
TTITLE0=Danke
TTITLE1=Doktor Countrymusic
TTITLE2=Auf der Autobahn
TTITLE3=Gott, ich hoff' der Tag wird gut
TTITLE4=Unter allen Männern, bin ich der LKW
TTITLE5=Komm Baby tanz mit mir
TTITLE6=100%ig Countryfan
TTITLE7=Der liebe Gott, der muß'n Cowboy sein
TTITLE8=Ich möcht' so gerne mal nach Nashville
TTITLE9=Wir gehören doch zusammen
TTITLE10=Ich seh' die große Welt nur durch die Windschutzscheibe
TTITLE11=Bärenstark
TTITLE12=An meinen Nächsten
TTITLE13=Was du mit mir machst Mädchen
TTITLE14=L.I.E.B.E
TTITLE15=Ein Mann mit Bauch, der tut's doch auch
TTITLE16=Man sollte einen Drink nach dir benennen
TTITLE17=Transit Cowboy
TTITLE18=Bi-Ba-Baby
TTITLE19=Abschied
EXTD=ID3G: 2
EXTT0=
EXTT1=
EXTT2=
EXTT3=
EXTT4=
EXTT5=
EXTT6=
EXTT7=
EXTT8=
EXTT9=
EXTT10=
EXTT11=
EXTT12=
EXTT13=
EXTT14=
EXTT15=
EXTT16=
EXTT17=
EXTT18=
EXTT19=
PLAYORDER=
